<svg width="14" height="15" viewBox="0 0 14 15" fill="none" xmlns="http://www.w3.org/2000/svg">
<g clip-path="url(#clip0_576_1467)">
<path fill-rule="evenodd" clip-rule="evenodd" d="M9.91863 0.945116C10.0973 0.128729 11.2598 0.123648 11.4456 0.938442L11.454 0.975605C11.4596 1.00071 11.465 1.02381 11.4706 1.04793C11.6731 1.91043 12.3712 2.56947 13.2449 2.72148C14.0969 2.86971 14.0969 4.09283 13.2449 4.24106C12.3665 4.39388 11.6657 5.05915 11.4674 5.92844L11.4456 6.0241C11.2598 6.8389 10.0973 6.83381 9.91863 6.01743L9.90066 5.93535C9.70969 5.06294 9.00989 4.39278 8.13004 4.23971C7.27954 4.09174 7.27953 2.8708 8.13004 2.72284C9.00682 2.5703 9.70481 1.90426 9.89864 1.03631L9.91186 0.976132L9.91863 0.945116ZM1.10467 0.384348C0.564963 0.384348 0.127441 0.821869 0.127441 1.36158V5.51481C0.127441 6.05452 0.564963 6.49204 1.10467 6.49204H5.25791C5.79762 6.49204 6.23514 6.05452 6.23514 5.51481V1.36158C6.23514 0.821869 5.79762 0.384348 5.25791 0.384348H1.10467ZM0.127441 8.95613C0.127441 8.41642 0.564963 7.97889 1.10467 7.97889H5.25791C5.79762 7.97889 6.23514 8.41642 6.23514 8.95613V13.1094C6.23514 13.6491 5.79762 14.0866 5.25791 14.0866H1.10467C0.564963 14.0866 0.127441 13.6491 0.127441 13.1094V8.95613ZM7.72198 8.95613C7.72198 8.41642 8.1595 7.97889 8.69921 7.97889H12.8524C13.3922 7.97889 13.8297 8.41642 13.8297 8.95613V13.1094C13.8297 13.6491 13.3922 14.0866 12.8524 14.0866H8.69921C8.1595 14.0866 7.72198 13.6491 7.72198 13.1094V8.95613Z" fill="black"/>
</g>
<defs>
<clipPath id="clip0_576_1467">
<rect width="14" height="14" fill="white" transform="translate(0 0.213867)"/>
</clipPath>
</defs>
</svg>
